<?xml version="1.0" encoding="UTF-8" standalone="no"?>
<svg
   version="1.1"
   x="0px"
   y="0px"
   viewBox="0 0 650.00002 350.00001"
   xml:space="preserve"
   id="svg10"
   sodipodi:docname="noun_radio mast_1978729.svg"
   inkscape:version="1.2.1 (9c6d41e410, 2022-07-14)"
   width="650"
   height="350"
   inkscape:export-filename="scicomm.png"
   inkscape:export-xdpi="273.28635"
   inkscape:export-ydpi="273.28635"
   xmlns:inkscape="http://www.inkscape.org/namespaces/inkscape"
   xmlns:sodipodi="http://sodipodi.sourceforge.net/DTD/sodipodi-0.dtd"
   xmlns="http://www.w3.org/2000/svg"
   xmlns:svg="http://www.w3.org/2000/svg"
   xmlns:rdf="http://www.w3.org/1999/02/22-rdf-syntax-ns#"
   xmlns:cc="http://creativecommons.org/ns#"
   xmlns:dc="http://purl.org/dc/elements/1.1/"><metadata
     id="metadata16"><rdf:RDF><cc:Work
         rdf:about=""><dc:format>image/svg+xml</dc:format><dc:type
           rdf:resource="http://purl.org/dc/dcmitype/StillImage" /></cc:Work></rdf:RDF></metadata><defs
     id="defs14" /><sodipodi:namedview
     pagecolor="#ffffff"
     bordercolor="#666666"
     borderopacity="1"
     objecttolerance="10"
     gridtolerance="10"
     guidetolerance="10"
     inkscape:pageopacity="0"
     inkscape:pageshadow="2"
     inkscape:window-width="1920"
     inkscape:window-height="991"
     id="namedview12"
     showgrid="false"
     inkscape:zoom="1.185111"
     inkscape:cx="352.28768"
     inkscape:cy="143.86838"
     inkscape:window-x="-9"
     inkscape:window-y="-9"
     inkscape:window-maximized="1"
     inkscape:current-layer="svg10"
     inkscape:document-rotation="0"
     inkscape:showpageshadow="2"
     inkscape:pagecheckerboard="0"
     inkscape:deskcolor="#d1d1d1" /><rect
     style="opacity:0.99;fill:none;fill-opacity:1;stroke:none;stroke-width:4.99999;paint-order:markers stroke fill"
     id="rect864"
     width="650"
     height="350"
     x="0"
     y="0"
     inkscape:export-xdpi="273.28635"
     inkscape:export-ydpi="273.28635" /><text
     xml:space="preserve"
     style="font-size:85.3637px;font-family:Calibri;-inkscape-font-specification:Calibri;text-align:center;text-anchor:middle;fill:#ffffff;stroke-width:1"
     x="323.89062"
     y="300.66418"
     id="text843"
     inkscape:export-xdpi="273.28635"
     inkscape:export-ydpi="273.28635"><tspan
       sodipodi:role="line"
       x="333.53989"
       y="300.66418"
       id="tspan845"
       style="font-size:85.3637px;fill:#ffffff;stroke-width:1"><tspan
   style="font-size:64px;fill:#ffffff"
   id="tspan924">SCIENCE</tspan> </tspan></text><text
     xml:space="preserve"
     style="font-size:64px;font-family:Calibri;-inkscape-font-specification:Calibri;fill:#ffffff;stroke-width:1"
     x="85.65625"
     y="345.86246"
     id="text887"
     inkscape:export-xdpi="273.28635"
     inkscape:export-ydpi="273.28635"><tspan
       sodipodi:role="line"
       id="tspan885"
       x="85.65625"
       y="345.86246"
       style="font-size:64px;fill:#ffffff;stroke-width:1">COMMUNICATION</tspan></text><g
     id="g978"
     transform="matrix(1.018472,0,0,1.018472,-8.0087343,-8.7280562)"
     style="stroke-width:0.981863"><circle
       style="opacity:0.99;fill:#d9514f;fill-opacity:0.99215686;stroke:#d9514f;stroke-width:4.90932;stroke-opacity:0.99215686;paint-order:markers stroke fill"
       id="path848"
       cx="326.96896"
       cy="141.75803"
       r="114.20048" /><g
       id="g4"
       transform="matrix(1.9402422,0,0,1.9402422,224.62119,45.147182)"
       style="fill:#ffffff;stroke-width:0.506052"
       inkscape:export-xdpi="273.28635"
       inkscape:export-ydpi="273.28635"><path
         d="M 80.3,94.6 C 70.8,87.9 61.8,81.5 52.7,75.1 c -9,6.4 -18,12.8 -27.5,19.5 2.1,-7 4.1,-13.4 6,-19.8 C 36.3,58.3 41.3,41.7 46.4,25.2 46.9,23.6 46.7,22.7 45.5,21.5 41.7,17.8 41.7,11.7 45.4,7.9 49.1,4.1 55.2,4 59,7.7 c 3.8,3.7 4,9.6 0.2,13.5 -1.2,1.3 -1.3,2.3 -0.8,3.8 7.2,22.6 14.3,45.2 21.4,67.8 0.1,0.4 0.2,0.7 0.5,1.8 z m -27.7,-28 c 2.8,-2 5.6,-4 8.4,-5.9 1.7,-1.2 0.5,-2.4 0.2,-3.6 -0.2,-1.2 -0.6,-2.3 -2.2,-2.2 -4.3,0.1 -8.7,0.1 -13,0 -1.9,0 -1.9,1.4 -2.2,2.5 -0.3,1.1 -1.2,2.3 0.4,3.3 2.9,1.8 5.6,3.9 8.4,5.9 z M 46.7,47.9 c 4,0 7.6,0 11.7,0 -1.9,-6.2 -3.8,-11.9 -5.6,-17.7 -0.2,0 -0.5,0.1 -0.7,0.1 -1.8,5.8 -3.6,11.5 -5.4,17.6 z M 38,76.4 c 0.2,0.1 0.3,0.2 0.5,0.3 2.7,-1.9 5.3,-3.8 8.3,-5.9 -2.1,-1.5 -3.8,-2.7 -5.8,-4.1 -1.2,3.6 -2.1,6.7 -3,9.7 z m 26.3,-9.6 c -2,1.4 -3.7,2.6 -5.7,4 3,2.1 5.6,4 8.3,5.8 0.1,-0.1 0.3,-0.2 0.4,-0.4 -0.9,-2.9 -1.9,-6 -3,-9.4 z"
         id="path2"
         style="fill:#ffffff;stroke-width:0.506052" /></g></g></svg>
