<?xml version="1.0" encoding="UTF-8" standalone="no"?>
<svg
   version="1.1"
   x="0px"
   y="0px"
   viewBox="0 0 650 350"
   enable-background="new 0 0 100 100"
   xml:space="preserve"
   id="svg38"
   sodipodi:docname="noun_Parrot_2333036.svg"
   inkscape:version="1.2.1 (9c6d41e410, 2022-07-14)"
   width="650"
   height="350"
   inkscape:export-filename="research.png"
   inkscape:export-xdpi="296.20001"
   inkscape:export-ydpi="296.20001"
   xmlns:inkscape="http://www.inkscape.org/namespaces/inkscape"
   xmlns:sodipodi="http://sodipodi.sourceforge.net/DTD/sodipodi-0.dtd"
   xmlns="http://www.w3.org/2000/svg"
   xmlns:svg="http://www.w3.org/2000/svg"
   xmlns:rdf="http://www.w3.org/1999/02/22-rdf-syntax-ns#"
   xmlns:cc="http://creativecommons.org/ns#"
   xmlns:dc="http://purl.org/dc/elements/1.1/"><metadata
     id="metadata44"><rdf:RDF><cc:Work
         rdf:about=""><dc:format>image/svg+xml</dc:format><dc:type
           rdf:resource="http://purl.org/dc/dcmitype/StillImage" /></cc:Work></rdf:RDF></metadata><defs
     id="defs42" /><sodipodi:namedview
     pagecolor="#ffffff"
     bordercolor="#666666"
     borderopacity="1"
     objecttolerance="10"
     gridtolerance="10"
     guidetolerance="10"
     inkscape:pageopacity="0"
     inkscape:pageshadow="2"
     inkscape:window-width="1920"
     inkscape:window-height="991"
     id="namedview40"
     showgrid="false"
     inkscape:zoom="1.185111"
     inkscape:cx="289.00246"
     inkscape:cy="106.74106"
     inkscape:window-x="-9"
     inkscape:window-y="-9"
     inkscape:window-maximized="1"
     inkscape:current-layer="svg38"
     inkscape:document-rotation="0"
     inkscape:showpageshadow="2"
     inkscape:pagecheckerboard="0"
     inkscape:deskcolor="#d1d1d1" /><rect
     style="opacity:0.99;fill:none;fill-opacity:1;stroke:none;stroke-width:4.99999;paint-order:markers stroke fill"
     id="rect864"
     width="650"
     height="350"
     x="0"
     y="0"
     inkscape:export-xdpi="296.20001"
     inkscape:export-ydpi="296.20001" /><g
     id="g867"
     transform="translate(40.393799,18)"><circle
       style="opacity:0.99;fill:#2da8d8;fill-opacity:0.992157;stroke:#2da8d8;stroke-width:5;stroke-opacity:0.992157;paint-order:markers stroke fill"
       id="path848"
       cx="284.6062"
       cy="118.73508"
       r="114.20048" /><g
       id="g32"
       transform="matrix(2.0655047,0,0,2.0655047,184.82774,10.107019)"
       style="fill:#ffffff;stroke-width:0.484143"><g
         id="g30"
         style="fill:#ffffff;stroke-width:0.484143"><g
           id="g4"
           style="fill:#ffffff;stroke-width:0.484143"><path
             d="m 28.731,24.287 c -0.346,0 -0.69,-0.089 -1,-0.268 L 17.09,17.876 c -0.619,-0.357 -1,-1.018 -1,-1.732 0,-0.714 0.381,-1.375 1,-1.732 L 27.732,8.268 c 0.619,-0.357 1.381,-0.357 2,0 0.619,0.357 1,1.018 1,1.732 v 12.287 c 0,0.715 -0.381,1.375 -1,1.732 -0.31,0.179 -0.655,0.268 -1.001,0.268 z m -6.641,-8.143 4.642,2.68 v -5.359 z"
             id="path2"
             style="fill:#ffffff;stroke-width:0.484143" /></g><g
           id="g8"
           style="fill:#ffffff;stroke-width:0.484143"><path
             d="m 18.09,26.336 c -1.104,0 -2,-0.896 -2,-2 v -8.192 c 0,-0.715 0.381,-1.375 1,-1.732 0.619,-0.357 1.381,-0.357 2,0 l 7.095,4.096 c 0.956,0.553 1.284,1.775 0.732,2.732 -0.554,0.956 -1.773,1.284 -2.732,0.732 L 20.09,19.608 v 4.729 c 0,1.103 -0.896,1.999 -2,1.999 z"
             id="path6"
             style="fill:#ffffff;stroke-width:0.484143" /></g><g
           id="g12"
           style="fill:#ffffff;stroke-width:0.484143"><path
             d="m 25.185,30.432 c -0.346,0 -0.69,-0.089 -1,-0.268 L 17.09,26.068 C 16.134,25.515 15.806,24.293 16.358,23.336 16.911,22.38 18.13,22.05 19.09,22.604 l 4.095,2.364 v -4.729 c 0,-1.104 0.896,-2 2,-2 1.104,0 2,0.896 2,2 v 8.192 c 0,0.715 -0.381,1.375 -1,1.732 -0.31,0.18 -0.655,0.269 -1,0.269 z"
             id="path10"
             style="fill:#ffffff;stroke-width:0.484143" /></g><g
           id="g16"
           style="fill:#ffffff;stroke-width:0.484143"><path
             d="m 28.731,42.429 c -0.35,0 -0.699,-0.092 -1.012,-0.274 -0.612,-0.359 -0.988,-1.016 -0.988,-1.726 V 10 c 0,-0.574 0.247,-1.121 0.679,-1.501 0.431,-0.38 0.999,-0.561 1.575,-0.482 l 11.077,1.417 c 0.72,0.092 1.333,0.566 1.603,1.24 l 7.459,18.633 c 0.374,0.933 -0.003,1.997 -0.879,2.488 L 29.709,42.174 c -0.304,0.17 -0.641,0.255 -0.978,0.255 z m 2,-30.157 V 37.016 L 44.757,29.162 38.388,13.251 Z"
             id="path14"
             style="fill:#ffffff;stroke-width:0.484143" /></g><g
           id="g20"
           style="fill:#ffffff;stroke-width:0.484143"><path
             d="m 79.465,92 c -0.508,0 -1.013,-0.192 -1.398,-0.569 L 27.334,41.859 c -0.79,-0.772 -0.805,-2.038 -0.033,-2.828 0.772,-0.79 2.039,-0.804 2.828,-0.033 L 71.416,79.34 57.104,52.915 c -0.526,-0.971 -0.165,-2.185 0.807,-2.711 0.972,-0.528 2.185,-0.165 2.711,0.807 L 81.223,89.048 C 81.694,89.917 81.458,91 80.669,91.596 80.311,91.867 79.887,92 79.465,92 Z"
             id="path18"
             style="fill:#ffffff;stroke-width:0.484143" /></g><g
           id="g24"
           style="fill:#ffffff;stroke-width:0.484143"><path
             d="m 81.909,62.785 c -0.238,0 -0.48,-0.043 -0.714,-0.132 L 28.017,42.297 c -0.725,-0.277 -1.224,-0.949 -1.28,-1.724 -0.056,-0.773 0.341,-1.511 1.018,-1.89 L 46.29,28.305 c 0.743,-0.414 1.667,-0.314 2.305,0.249 l 34.643,30.735 c 0.723,0.642 0.884,1.708 0.383,2.534 -0.373,0.612 -1.029,0.962 -1.712,0.962 z m -48.474,-22.697 38.93,14.901 -25.36,-22.5 z"
             id="path22"
             style="fill:#ffffff;stroke-width:0.484143" /></g><g
           id="g28"
           style="fill:#ffffff;stroke-width:0.484143"><path
             d="m 31.91,59.946 c -0.272,0 -0.546,-0.056 -0.804,-0.169 C 30.379,59.458 29.91,58.74 29.91,57.946 V 43.534 c 0,-1.104 0.896,-2 2,-2 1.104,0 2,0.896 2,2 v 9.857 l 4.272,-3.928 c 0.813,-0.747 2.079,-0.692 2.826,0.119 0.747,0.813 0.694,2.078 -0.119,2.826 l -7.626,7.01 c -0.376,0.347 -0.862,0.528 -1.353,0.528 z"
             id="path26"
             style="fill:#ffffff;stroke-width:0.484143" /></g></g></g></g><text
     xml:space="preserve"
     style="font-size:64px;font-family:Calibri;-inkscape-font-specification:Calibri;letter-spacing:0px;word-spacing:0px;fill:#ffffff;stroke-width:1"
     x="189.71875"
     y="313.70761"
     id="text877"
     inkscape:export-xdpi="300"
     inkscape:export-ydpi="300"><tspan
       sodipodi:role="line"
       id="tspan875"
       x="189.71875"
       y="313.70761"
       dy="0 0 0 0 0 0"
       rotate="0 0 0 0 0 0 0"
       dx="0 0 0 0 0 0"
       style="font-size:64px;fill:#ffffff;stroke-width:1">RESEARCH</tspan></text></svg>
